<?xml version="1.0" encoding="UTF-8"?><svg xmlns="http://www.w3.org/2000/svg" xmlns:xlink="http://www.w3.org/1999/xlink" viewBox="0 0 3720 2100"><defs><style>.cls-1{fill:url(#radial-gradient-10);}.cls-1,.cls-2,.cls-3,.cls-4,.cls-5,.cls-6,.cls-7,.cls-8,.cls-9,.cls-10,.cls-11,.cls-12,.cls-13,.cls-14,.cls-15,.cls-16,.cls-17,.cls-18,.cls-19{mix-blend-mode:multiply;opacity:.5;}.cls-2{fill:url(#radial-gradient-21);}.cls-3{fill:url(#radial-gradient-14);}.cls-4{fill:url(#radial-gradient);}.cls-5{fill:url(#radial-gradient-17);}.cls-6{fill:url(#radial-gradient-19);}.cls-20{fill:url(#radial-gradient-16);}.cls-21{fill:url(#radial-gradient-5);}.cls-7{fill:url(#radial-gradient-4);}.cls-22{isolation:isolate;}.cls-8{fill:url(#radial-gradient-8);}.cls-9{fill:url(#radial-gradient-20);}.cls-10{fill:url(#radial-gradient-3);}.cls-11{fill:url(#radial-gradient-15);}.cls-12{fill:url(#radial-gradient-13);}.cls-13{fill:url(#radial-gradient-18);}.cls-23{fill:#232526;}.cls-14{fill:url(#radial-gradient-22);}.cls-15{fill:url(#radial-gradient-7);}.cls-16{fill:url(#radial-gradient-2);}.cls-17{fill:url(#radial-gradient-6);}.cls-18{fill:url(#radial-gradient-12);}.cls-24{fill:url(#radial-gradient-23);}.cls-25{fill:url(#radial-gradient-9);}.cls-19{fill:url(#radial-gradient-11);}.cls-26{fill:#58595b;}</style><radialGradient id="radial-gradient" cx="1554.14" cy="2522.47" fx="1554.14" fy="2522.47" r="220" gradientTransform="translate(186.56 4787.87) rotate(-90) scale(2.42 1.1)" gradientUnits="userSpaceOnUse"><stop offset="0" stop-color="#000"/><stop offset="1" stop-color="#fff"/></radialGradient><radialGradient id="radial-gradient-2" cx="1396.44" cy="2392.06" fx="1396.44" fy="2392.06" r="220" gradientTransform="translate(-1648.72 -1145.11) scale(2.97 1.1)" xlink:href="#radial-gradient"/><radialGradient id="radial-gradient-3" cx="1618.88" cy="2318.28" fx="1618.88" fy="2318.28" r="220" gradientTransform="translate(-1034.11 -1163.75) scale(2.43 1.1)" xlink:href="#radial-gradient"/><radialGradient id="radial-gradient-4" cx="940.22" cy="2043.53" fx="940.22" fy="2043.53" r="220" gradientTransform="translate(-494.05 -684.53) scale(2.53 1.23)" xlink:href="#radial-gradient"/><radialGradient id="radial-gradient-5" cx="2349.26" cy="1077.36" fx="2349.26" fy="1077.36" r="917.03" gradientUnits="userSpaceOnUse"><stop offset=".03" stop-color="#414345"/><stop offset="1" stop-color="#232526"/></radialGradient><radialGradient id="radial-gradient-6" cx="1394.61" cy="2948.41" fx="1394.61" fy="2948.41" r="219.99" gradientTransform="translate(251.13 -1459.97) scale(1.95 1.07)" xlink:href="#radial-gradient"/><radialGradient id="radial-gradient-7" cx="1740.8" cy="2799.15" fx="1740.8" fy="2799.15" r="220" gradientTransform="translate(216.48 -3009.52) scale(1.86 1.52)" xlink:href="#radial-gradient"/><radialGradient id="radial-gradient-8" cx="1210.54" cy="3071.64" fx="1210.54" fy="3071.64" r="220" gradientTransform="translate(215.28 -1434.87) scale(1.95 1.07)" xlink:href="#radial-gradient"/><radialGradient id="radial-gradient-9" cx="3075.12" cy="1437.28" fx="3075.12" fy="1437.28" r="788.77" gradientUnits="userSpaceOnUse"><stop offset=".03" stop-color="#414345"/><stop offset=".11" stop-color="#3e4042"/><stop offset="1" stop-color="#232526"/></radialGradient><radialGradient id="radial-gradient-10" cx="1623.73" cy="1837.46" fx="1623.73" fy="1837.46" r="220" gradientTransform="translate(-1275.28 -2015.88) scale(2.17 1.4)" xlink:href="#radial-gradient"/><radialGradient id="radial-gradient-11" cx="1232.02" cy="1545.82" fx="1232.02" fy="1545.82" r="220" gradientTransform="translate(-3059.62 -891.56) scale(3.8 1.12)" xlink:href="#radial-gradient"/><radialGradient id="radial-gradient-12" cx="748.83" cy="2151.04" fx="748.83" fy="2151.04" r="220" gradientTransform="translate(-1308.05 -427) scale(2.19 1.06)" xlink:href="#radial-gradient"/><radialGradient id="radial-gradient-13" cx="1075.41" cy="2280.84" fx="1075.41" fy="2280.84" r="220" gradientTransform="translate(-1795.86 4323.13) rotate(-90) scale(2.54 1.22)" xlink:href="#radial-gradient"/><radialGradient id="radial-gradient-14" cx="1266.57" cy="2367.12" fx="1266.57" fy="2367.12" r="220" gradientTransform="translate(-2397.17 -2004.17) scale(2.72 1.29)" xlink:href="#radial-gradient"/><radialGradient id="radial-gradient-15" cx="950.17" cy="2247.09" fx="950.17" fy="2247.09" r="220" gradientTransform="translate(3144.53 -94.75) rotate(90) scale(2.05 1.06)" xlink:href="#radial-gradient"/><radialGradient id="radial-gradient-16" cx="1785.38" cy="1623.25" fx="1785.38" fy="1623.25" r="1344.34" xlink:href="#radial-gradient-9"/><radialGradient id="radial-gradient-17" cx="493.51" cy="1126.24" fx="493.51" fy="1126.24" r="220" gradientTransform="translate(1529.31 363.23) rotate(90) scale(1.43 1)" xlink:href="#radial-gradient"/><radialGradient id="radial-gradient-18" cx="550.24" cy="1020.38" fx="550.24" fy="1020.38" r="220" gradientTransform="translate(1846.29 1766.51) rotate(-180) scale(2.25 .94)" xlink:href="#radial-gradient"/><radialGradient id="radial-gradient-19" cx="365.79" cy="1240.6" fx="365.79" fy="1240.6" r="220" gradientTransform="translate(-339.29 -93.68) scale(1.43 1)" xlink:href="#radial-gradient"/><radialGradient id="radial-gradient-20" cx="991.68" cy="938.69" fx="991.68" fy="938.69" r="220" gradientTransform="translate(-889.22 -488.17) scale(1.87 1)" xlink:href="#radial-gradient"/><radialGradient id="radial-gradient-21" cx="1237.92" cy="986.8" fx="1237.92" fy="986.8" r="220" gradientTransform="translate(-928.38 -698.08) scale(1.87 1)" xlink:href="#radial-gradient"/><radialGradient id="radial-gradient-22" cx="1118.92" cy="981.9" fx="1118.92" fy="981.9" r="220" gradientTransform="translate(-794.8 -546.08) scale(1.82 .95)" xlink:href="#radial-gradient"/><radialGradient id="radial-gradient-23" cx="735.59" cy="627.45" fx="735.59" fy="627.45" r="879.78" xlink:href="#radial-gradient-9"/></defs><g class="cls-22"><g id="bg"><rect class="cls-23" width="3720" height="2100"/></g><g id="Layer_1"><g><g><g><ellipse class="cls-4" cx="2963.57" cy="1020.43" rx="242.19" ry="533.31" transform="translate(-2.48 7.23) rotate(-.14)"/><ellipse class="cls-16" cx="2504.38" cy="1488.32" rx="654.31" ry="242.19" transform="translate(-234.17 494.68) rotate(-10.78)"/><ellipse class="cls-10" cx="2899.86" cy="1388.46" rx="534.59" ry="242.19" transform="translate(541.93 3574.14) rotate(-68.41)"/><ellipse class="cls-7" cx="1885.74" cy="1833.48" rx="556.83" ry="271.08" transform="translate(-728.91 2118.58) rotate(-50.42)"/></g><path class="cls-21" d="M3720,2100V333.87s-85.12,285.11-405.55,280.45c-93.78-1.36-164.64-54.02-240.86-91-139.93-67.87-221.17,78.4-252.56,193.03-16.75,61.18-25.4,124.18-20.96,187.46,6.6,94.14,44.83,208.38-5.52,296.63-51.32,89.96-186.57,105.63-273.02,125.23-142.11,32.22-296.16,33.71-437.8,78.49-167.34,52.91-268.09,172.53-341.88,327.69-49.44,103.96-92.76,244.64-67.53,368.15h2045.69Z"/></g><g><g><ellipse class="cls-17" cx="2976.14" cy="1685.27" rx="429.87" ry="234.67" transform="translate(-442.98 1769.74) rotate(-30.94)"/><ellipse class="cls-15" cx="3452.83" cy="1254.28" rx="409.01" ry="335.11" transform="translate(-168.88 639.1) rotate(-10.32)"/><ellipse class="cls-8" cx="2580.71" cy="1841.56" rx="429.87" ry="234.67" transform="translate(-524.81 2479.64) rotate(-47.12)"/></g><path class="cls-25" d="M3720,2100V920.78s-56.83,190.36-270.78,187.25c-62.62-.91-109.93-36.07-160.82-60.76-93.43-45.32-147.67,52.35-168.63,128.88-11.19,40.85-16.96,82.91-14,125.16,4.41,62.85,29.93,139.13-3.68,198.06-34.27,60.06-124.57,70.53-182.29,83.62-94.88,21.51-197.74,22.51-292.32,52.41-111.73,35.33-179,115.2-228.27,218.79-33.01,69.41-61.93,163.34-45.09,245.81h1365.87Z"/></g><g><g><ellipse class="cls-1" cx="2241.35" cy="549.48" rx="476.46" ry="307.15" transform="translate(484.66 2046.02) rotate(-54.2)"/><ellipse class="cls-19" cx="1618.68" cy="844.67" rx="835.41" ry="247.1" transform="translate(-131.26 323.8) rotate(-10.98)"/><ellipse class="cls-18" cx="334.75" cy="1847.71" rx="482.63" ry="232.65" transform="translate(-581.84 208.83) rotate(-18.95)"/><ellipse class="cls-12" cx="978.99" cy="1596.47" rx="267.63" ry="557.79" transform="translate(-93.49 61.24) rotate(-3.42)"/><ellipse class="cls-3" cx="1044.02" cy="1058.29" rx="597.72" ry="284.63" transform="translate(-439.77 967.05) rotate(-41.87)"/><ellipse class="cls-11" cx="768.15" cy="1851.61" rx="232.65" ry="450.64" transform="translate(-1236.26 1822.85) rotate(-66.65)"/></g><path class="cls-20" d="M2657.57,0H0V2100H116.19c80.46-88.35,210.06-172.85,410.66-169.93,121.84,1.77,213.88,70.18,312.91,118.22,181.78,88.17,287.32-101.85,328.1-250.76,21.76-79.48,33-161.33,27.23-243.53-8.58-122.29-58.24-270.7,7.17-385.36,66.67-116.87,242.38-137.23,354.68-162.69,184.62-41.86,384.75-43.79,568.76-101.97,217.4-68.73,348.28-224.14,444.14-425.71C2634.07,343.21,2690.34,160.46,2657.57,0Z"/></g><g><g><ellipse class="cls-5" cx="402.69" cy="1067.65" rx="220.08" ry="314" transform="translate(-736.23 1137.78) rotate(-72.86)"/><ellipse class="cls-13" cx="606.01" cy="811.12" rx="495.88" ry="206" transform="translate(-270.33 1318.27) rotate(-83.29)"/><ellipse class="cls-6" cx="182.76" cy="1146.93" rx="314" ry="220" transform="translate(-478.61 192.24) rotate(-25.66)"/><ellipse class="cls-9" cx="962.5" cy="450.55" rx="410.79" ry="220" transform="translate(-92.16 319.78) rotate(-18.02)"/><ellipse class="cls-2" cx="1383.13" cy="288.74" rx="410.79" ry="220" transform="translate(140.13 960.58) rotate(-40.18)"/><ellipse class="cls-14" cx="1240.57" cy="388.54" rx="400.19" ry="209.41" transform="translate(42.09 892.15) rotate(-40.18)"/></g><path class="cls-24" d="M0,0V1349.35s65.03-217.83,309.84-214.27c71.65,1.04,125.78,41.27,184.02,69.53,106.9,51.86,168.97-59.9,192.96-147.47,12.8-46.74,19.41-94.88,16.02-143.22-5.04-71.92-34.25-159.2,4.21-226.63,39.21-68.73,142.54-80.7,208.59-95.68,108.57-24.62,226.27-25.75,334.49-59.97,127.85-40.42,204.82-131.82,261.2-250.36C1549.11,201.84,1582.2,94.36,1562.93,0H0Z"/></g></g><g><g><g><circle class="cls-26" cx="3357.31" cy="159.06" r="9.34" transform="translate(870.86 2420.56) rotate(-45)"/><circle class="cls-26" cx="3357.31" cy="273.73" r="9.34" transform="translate(2319.55 3478.33) rotate(-76.72)"/><circle class="cls-26" cx="3357.31" cy="388.39" r="9.34" transform="translate(2207.96 3566.65) rotate(-76.72)"/><circle class="cls-26" cx="3357.31" cy="503.05" r="9.34" transform="translate(627.62 2521.32) rotate(-45)"/></g><g><g><circle class="cls-26" cx="3467.57" cy="159.06" r="9.34" transform="translate(903.15 2498.53) rotate(-45)"/><circle class="cls-26" cx="3467.57" cy="273.73" r="9.34" transform="translate(2404.48 3585.65) rotate(-76.72)"/><circle class="cls-26" cx="3467.57" cy="388.39" r="9.34" transform="translate(2292.89 3673.97) rotate(-76.72)"/><circle class="cls-26" cx="3467.57" cy="503.05" r="9.34" transform="translate(659.91 2599.28) rotate(-45)"/></g><g><circle class="cls-26" cx="3577.83" cy="159.06" r="9.34" transform="translate(2601 3604.64) rotate(-76.72)"/><circle class="cls-26" cx="3577.83" cy="273.73" r="9.34" transform="translate(854.37 2610.08) rotate(-45)"/><circle class="cls-26" cx="3577.83" cy="388.39" r="9.34" transform="translate(773.29 2643.67) rotate(-45)"/><circle class="cls-26" cx="3577.83" cy="503.05" r="9.34" transform="translate(2266.22 3869.6) rotate(-76.72)"/></g></g></g><g><g><circle class="cls-26" cx="142.17" cy="1596.95" r="9.34" transform="translate(-1087.57 568.26) rotate(-45)"/><circle class="cls-26" cx="142.17" cy="1711.61" r="9.34" transform="translate(-1556.56 1458.32) rotate(-76.77)"/><circle class="cls-26" cx="142.17" cy="1826.27" r="9.34" transform="translate(-1668.18 1546.74) rotate(-76.77)"/><circle class="cls-26" cx="142.17" cy="1940.94" r="9.34" transform="translate(-1330.81 669.01) rotate(-45)"/></g><g><g><circle class="cls-26" cx="252.43" cy="1596.95" r="9.34"/><circle class="cls-26" cx="252.43" cy="1711.61" r="9.34"/><circle class="cls-26" cx="252.43" cy="1826.27" r="9.34"/><circle class="cls-26" cx="252.43" cy="1940.94" r="9.34"/></g><g><circle class="cls-26" cx="362.69" cy="1596.95" r="9.34" transform="translate(-1274.85 1581.48) rotate(-76.66)"/><circle class="cls-26" cx="362.69" cy="1711.61" r="9.34" transform="translate(-1104.06 757.78) rotate(-45)"/><circle class="cls-26" cx="362.69" cy="1826.27" r="9.34" transform="translate(-1185.14 791.37) rotate(-45)"/><circle class="cls-26" cx="362.69" cy="1940.94" r="9.34" transform="translate(-1609.56 1846.13) rotate(-76.66)"/></g></g></g></g></g></g></svg>